<svg data-logo="logo" xmlns="http://www.w3.org/2000/svg" viewBox="0 0 213 43">
        <g id="logogram" transform="translate(0, 1) rotate(0)"><path d="M39.3285 32.987C43.1874 29.5411 45.5538 24.8908 45.5538 19.7738C45.5538 9.15126 35.3562 0.539978 22.7769 0.539978C10.1976 0.539978 0 9.15126 0 19.7738C0 30.3963 10.1976 39.0076 22.7769 39.0076C26.3456 39.0076 29.7226 38.3146 32.7295 37.0791C36.2616 39.2593 40.5891 40.8264 45.3684 40.4959C42.8435 39.8541 40.6717 37.2542 39.3285 32.987Z" fill="#1C2D5A"></path><path d="M39.48 19.7738C39.48 27.6009 32.0018 33.9461 22.7769 33.9461C13.5521 33.9461 6.07385 27.6009 6.07385 19.7738C6.07385 11.9466 13.5521 5.6015 22.7769 5.6015C32.0018 5.6015 39.48 11.9466 39.48 19.7738Z" fill="#4DA1FF"></path><path d="M33.4061 19.7738C33.4061 24.8056 28.6473 28.8846 22.7769 28.8846C16.9065 28.8846 12.1477 24.8056 12.1477 19.7738C12.1477 14.742 16.9065 10.6631 22.7769 10.6631C28.6473 10.6631 33.4061 14.742 33.4061 19.7738Z" fill="#FFFFFF"></path></g>
        <g id="logotype" transform="translate(52, 8.5)"><path fill="#ffffff" d="M15.07 4.86L7.28 4.86L7.28 0.54L28.08 0.54L28.08 4.86L20.30 4.86L20.30 26L15.07 26L15.07 4.86ZM37.90 26.38L37.90 26.38Q34.98 26.38 32.86 25.18Q30.74 23.98 29.61 21.78Q28.47 19.57 28.47 16.55L28.47 16.55Q28.47 13.59 29.60 11.37Q30.73 9.15 32.79 7.90Q34.86 6.65 37.65 6.65L37.65 6.65Q39.53 6.65 41.15 7.25Q42.78 7.85 44.01 9.06Q45.24 10.26 45.93 12.07Q46.62 13.88 46.62 16.34L46.62 16.34L46.62 17.78L30.57 17.78L30.57 14.57L44.11 14.57L41.72 15.42Q41.72 13.93 41.26 12.83Q40.81 11.73 39.91 11.12Q39.02 10.52 37.68 10.52L37.68 10.52Q36.37 10.52 35.44 11.13Q34.50 11.75 34.03 12.80Q33.55 13.85 33.55 15.20L33.55 15.20L33.55 17.47Q33.55 19.13 34.10 20.26Q34.66 21.39 35.66 21.95Q36.66 22.51 37.99 22.51L37.99 22.51Q38.90 22.51 39.63 22.26Q40.37 22.00 40.89 21.50Q41.41 20.99 41.68 20.26L41.68 20.26L46.33 21.13Q45.87 22.70 44.72 23.89Q43.58 25.08 41.86 25.73Q40.14 26.38 37.90 26.38ZM53.18 26.38L53.18 26.38Q51.37 26.38 49.93 25.74Q48.48 25.09 47.65 23.82Q46.82 22.55 46.82 20.65L46.82 20.65Q46.82 19.06 47.41 17.98Q48.00 16.91 49.02 16.26Q50.04 15.61 51.33 15.27Q52.62 14.93 54.04 14.79L54.04 14.79Q55.69 14.62 56.71 14.47Q57.73 14.33 58.20 14.01Q58.67 13.70 58.67 13.08L58.67 13.08L58.67 12.99Q58.67 12.17 58.33 11.61Q57.98 11.05 57.32 10.75Q56.65 10.45 55.68 10.45L55.68 10.45Q54.68 10.45 53.95 10.75Q53.22 11.05 52.75 11.54Q52.29 12.04 52.07 12.65L52.07 12.65L47.37 11.87Q47.87 10.21 49.01 9.05Q50.16 7.88 51.86 7.27Q53.56 6.65 55.68 6.65L55.68 6.65Q57.23 6.65 58.68 7.02Q60.14 7.39 61.29 8.16Q62.44 8.93 63.12 10.16Q63.79 11.39 63.79 13.13L63.79 13.13L63.79 26L58.94 26L58.94 23.35L58.77 23.35Q58.31 24.24 57.54 24.91Q56.77 25.59 55.68 25.98Q54.60 26.38 53.18 26.38ZM54.63 22.77L54.63 22.77Q55.85 22.77 56.76 22.29Q57.68 21.81 58.19 20.99Q58.70 20.17 58.70 19.16L58.70 19.16L58.70 17.10Q58.48 17.27 58.02 17.40Q57.56 17.54 56.99 17.64Q56.43 17.75 55.88 17.83Q55.33 17.92 54.91 17.97L54.91 17.97Q53.97 18.10 53.25 18.41Q52.53 18.72 52.14 19.22Q51.75 19.73 51.75 20.51L51.75 20.51Q51.75 21.25 52.12 21.75Q52.50 22.26 53.14 22.51Q53.78 22.77 54.63 22.77ZM71.02 26L65.89 26L65.89 6.89L70.64 6.89L70.90 11.64L70.53 11.64Q70.97 9.88 71.83 8.77Q72.70 7.66 73.86 7.13Q75.02 6.60 76.30 6.60L76.30 6.60Q78.37 6.60 79.63 7.91Q80.90 9.22 81.50 11.95L81.50 11.95L80.90 11.95Q81.33 10.12 82.29 8.94Q83.26 7.75 84.58 7.18Q85.91 6.60 87.36 6.60L87.36 6.60Q89.12 6.60 90.49 7.37Q91.87 8.14 92.66 9.59Q93.46 11.03 93.46 13.11L93.46 13.11L93.46 26L88.33 26L88.33 14.09Q88.33 12.46 87.45 11.68Q86.57 10.89 85.29 10.89L85.29 10.89Q84.33 10.89 83.62 11.31Q82.92 11.73 82.53 12.48Q82.15 13.23 82.15 14.24L82.15 14.24L82.15 26L77.19 26L77.19 13.95Q77.19 12.55 76.36 11.72Q75.53 10.89 74.22 10.89L74.22 10.89Q73.31 10.89 72.58 11.30Q71.86 11.71 71.44 12.51Q71.02 13.30 71.02 14.45L71.02 14.45L71.02 26ZM102.45 4.86L94.65 4.86L94.65 0.54L115.45 0.54L115.45 4.86L107.68 4.86L107.68 26L102.45 26L102.45 4.86ZM121.98 26.38L121.98 26.38Q120.17 26.38 118.72 25.74Q117.28 25.09 116.45 23.82Q115.62 22.55 115.62 20.65L115.62 20.65Q115.62 19.06 116.21 17.98Q116.80 16.91 117.82 16.26Q118.83 15.61 120.12 15.27Q121.41 14.93 122.83 14.79L122.83 14.79Q124.49 14.62 125.51 14.47Q126.52 14.33 126.99 14.01Q127.46 13.70 127.46 13.08L127.46 13.08L127.46 12.99Q127.46 12.17 127.12 11.61Q126.78 11.05 126.11 10.75Q125.45 10.45 124.47 10.45L124.47 10.45Q123.48 10.45 122.75 10.75Q122.01 11.05 121.55 11.54Q121.09 12.04 120.87 12.65L120.87 12.65L116.17 11.87Q116.66 10.21 117.81 9.05Q118.95 7.88 120.65 7.27Q122.35 6.65 124.47 6.65L124.47 6.65Q126.03 6.65 127.48 7.02Q128.93 7.39 130.09 8.16Q131.24 8.93 131.92 10.16Q132.59 11.39 132.59 13.13L132.59 13.13L132.59 26L127.74 26L127.74 23.35L127.57 23.35Q127.11 24.24 126.34 24.91Q125.57 25.59 124.48 25.98Q123.40 26.38 121.98 26.38ZM123.43 22.77L123.43 22.77Q124.64 22.77 125.56 22.29Q126.47 21.81 126.99 20.99Q127.50 20.17 127.50 19.16L127.50 19.16L127.50 17.10Q127.28 17.27 126.81 17.40Q126.35 17.54 125.79 17.64Q125.23 17.75 124.68 17.83Q124.13 17.92 123.70 17.97L123.70 17.97Q122.76 18.10 122.05 18.41Q121.33 18.72 120.94 19.22Q120.54 19.73 120.54 20.51L120.54 20.51Q120.54 21.25 120.92 21.75Q121.29 22.26 121.94 22.51Q122.58 22.77 123.43 22.77ZM134.69 0.54L139.82 0.54L139.82 26L134.69 26L134.69 0.54ZM150.04 16.48L146.55 20.41L146.55 14.24L147.32 14.24L153.57 6.89L159.50 6.89L151.25 16.48L150.04 16.48ZM147.03 26L141.90 26L141.90 0.54L147.03 0.54L147.03 26ZM159.86 26L153.83 26L148.09 17.63L151.52 13.99L159.86 26Z"></path></g>
        
      </svg>